<svg xmlns="http://www.w3.org/2000/svg" viewBox="0 0 480 220">
  <rect width="480" height="220" fill="#f5f7f9"/>
  <g stroke="#0f2a37" stroke-width="6" fill="none" stroke-linecap="round">
    <path d="M60 40v140"/>
    <path d="M90 20v180"/>
    <path d="M30 80h150"/>
    <path d="M30 140h150"/>
  </g>
  <g font-family="'Playfair Display', 'Times New Roman', serif" font-weight="600" fill="#0f2a37" font-size="96">
    <text x="140" y="126" letter-spacing="12">OBRATO</text>
  </g>
  <text x="402" y="152" font-family="'Montserrat', sans-serif" font-size="28" fill="#0f2a37">S.A.S</text>
  <path d="M226 96c0-26 18-46 42-46s42 20 42 46-18 46-42 46-42-20-42-46z" fill="#0d4650" opacity="0.18"/>
  <path d="M242 94c0-13.25 9.17-24 20.5-24s20.5 10.75 20.5 24-9.17 24-20.5 24S242 107.25 242 94z" fill="#0f8c8c" opacity="0.75"/>
  <path d="M262 70c6 10 6 26 0 36 12-4 20-12 24-20-6-8-12-12-24-16z" fill="#f5f7f9"/>
</svg>
